<svg xmlns="http://www.w3.org/2000/svg" xmlns:xlink="http://www.w3.org/1999/xlink" id="Calque_1" x="0px" y="0px" viewBox="0 0 1768 300" style="enable-background:new 0 0 1768 300;" xml:space="preserve">
<style type="text/css">
	.st0{fill:#22283C;}
	.st1{fill:#E7413E;}
</style>
<polygon class="st0" points="140.7,101.7 98.2,173.3 55.1,101.7 33,101.7 33,217 58,217 58,149.3 91.8,204.8 103.8,204.8   137.8,147.8 137.9,217 163,217 162.6,101.7 "></polygon>
<path class="st0" d="M257.8,172l-18.3-44.1L221.3,172H257.8z M266.2,192.3h-53.5L202.5,217h-27.3l51.4-115.3h26.4L304.4,217h-28  L266.2,192.3z"></path>
<path class="st0" d="M383.2,128.6c-4.2-3.5-10.3-5.2-18.3-5.2h-21.7v40.2h21.7c8,0,14.1-1.8,18.3-5.3c4.2-3.5,6.3-8.5,6.3-14.8  C389.4,137,387.3,132.1,383.2,128.6 M389.9,217l-22.2-32.1h-1.3h-23.2V217h-26.7V101.7h49.9c10.2,0,19.1,1.7,26.6,5.1  c7.5,3.4,13.3,8.2,17.4,14.5c4.1,6.3,6.1,13.7,6.1,22.2c0,8.6-2.1,16-6.2,22.2c-4.1,6.2-10,11-17.5,14.2l25.9,37.1H389.9z"></path>
<path class="st0" d="M462,178.4c3.1,5.6,7.4,10,12.9,13.1c5.5,3.1,11.6,4.7,18.4,4.7c6.8,0,13-1.6,18.4-4.7  c5.5-3.1,9.8-7.5,12.9-13.1c3.1-5.6,4.7-12,4.7-19.1c0-7.1-1.6-13.5-4.7-19.1c-3.1-5.6-7.4-10-12.9-13.1c-5.5-3.1-11.6-4.7-18.4-4.7  c-6.8,0-13,1.6-18.4,4.7c-5.5,3.1-9.8,7.5-12.9,13.1c-3.1,5.6-4.7,12-4.7,19.1C457.3,166.5,458.9,172.8,462,178.4 M562.2,229.3  c-3.7,4.6-8.3,8.1-13.6,10.5c-5.3,2.4-11.2,3.6-17.5,3.6c-8.6,0-16.3-1.8-23.2-5.5c-6.9-3.7-14.8-10.2-23.7-19.5  c-10.4-1.3-19.7-4.7-27.9-10c-8.2-5.4-14.6-12.3-19.1-20.8c-4.6-8.5-6.8-17.9-6.8-28.3c0-11.3,2.7-21.5,8.2-30.6  c5.4-9.1,13-16.2,22.6-21.3c9.6-5.2,20.4-7.7,32.4-7.7c12,0,22.7,2.6,32.3,7.7c9.6,5.2,17.1,12.3,22.6,21.3  c5.5,9.1,8.2,19.3,8.2,30.6c0,13.4-3.8,25.1-11.3,35.3c-7.5,10.1-17.5,17.1-29.9,21.1c2.7,2.9,5.4,4.9,8,6.2  c2.6,1.3,5.3,1.9,8.3,1.9c7.1,0,13.4-2.9,18.8-8.6L562.2,229.3z"></path>
<path class="st0" d="M589.3,205.3c-9.2-9.1-13.8-22.1-13.8-39v-64.6h26.7v63.6c0,20.6,8.6,31,25.7,31c8.4,0,14.7-2.5,19.1-7.5  c4.4-5,6.6-12.8,6.6-23.5v-63.6H680v64.6c0,16.9-4.6,29.9-13.8,39c-9.2,9.1-22,13.7-38.5,13.7C611.3,219,598.5,214.4,589.3,205.3"></path>
<polygon class="st0" points="795.6,195.6 795.6,217 706.3,217 706.3,101.7 793.5,101.7 793.5,123.1 732.8,123.1 732.8,148.1   786.4,148.1 786.4,168.9 732.8,168.9 732.8,195.6 "></polygon>
<polygon class="st1" points="879,60.5 879,83.2 854.5,83.2 854.5,225.2 879,225.2 879,247.9 828,247.9 828,60.5 "></polygon>
<path class="st0" d="M964.4,183.1c6.1-5.8,9.1-14,9.1-24.5c0-10.5-3-18.7-9.1-24.5c-6.1-5.8-14.6-8.7-25.6-8.7h-13.3v66.5h13.3  C949.8,191.8,958.3,188.9,964.4,183.1 M994.7,188.9c-4.9,8.8-11.9,15.7-21.1,20.7c-9.2,4.9-20,7.4-32.4,7.4h-44V100.5h44  c12.5,0,23.3,2.4,32.4,7.2c9.1,4.8,16.1,11.6,21,20.4c4.9,8.8,7.3,18.9,7.3,30.3C1002.1,169.9,999.6,180.1,994.7,188.9"></path>
<rect x="1022" y="101.7" class="st0" width="26.7" height="115.3"></rect>
<path class="st0" d="M1153.9,157.5h24.4v46.8c-6.3,4.7-13.5,8.3-21.7,10.9c-8.2,2.5-16.5,3.8-24.9,3.8c-12,0-22.7-2.5-32.3-7.7  c-9.6-5.1-17-12.2-22.5-21.3c-5.4-9.1-8.2-19.3-8.2-30.7c0-11.4,2.7-21.7,8.2-30.7c5.4-9.1,13-16.1,22.6-21.2  c9.7-5.1,20.5-7.7,32.6-7.7c10.1,0,19.3,1.7,27.5,5.1c8.2,3.4,15.2,8.3,20.8,14.8l-17.1,15.8c-8.2-8.7-18.2-13-29.8-13  c-7.4,0-13.9,1.5-19.6,4.6c-5.7,3.1-10.2,7.4-13.3,13c-3.2,5.6-4.8,12-4.8,19.3c0,7.1,1.6,13.5,4.8,19.1c3.2,5.6,7.6,10,13.3,13.1  c5.7,3.1,12.1,4.7,19.4,4.7c7.7,0,14.6-1.6,20.8-4.9V157.5z"></path>
<rect x="1203" y="101.7" class="st0" width="26.7" height="115.3"></rect>
<polygon class="st0" points="1280.9,123.4 1244,123.4 1244,101.7 1344.5,101.7 1344.5,123.4 1307.6,123.4 1307.6,217 1280.9,217 "></polygon>
<path class="st0" d="M1420.6,172l-18.3-44.1L1384,172H1420.6z M1429,192.3h-53.5l-10.2,24.7h-27.3l51.4-115.3h26.4l51.6,115.3h-28  L1429,192.3z"></path>
<polygon class="st0" points="1479.2,101.7 1505.9,101.7 1505.9,195.2 1563.7,195.2 1563.7,217 1479.2,217 "></polygon>
<polygon class="st0" points="1668,195.6 1668,217 1578.7,217 1578.7,101.7 1665.8,101.7 1665.8,123.1 1605.2,123.1 1605.2,148.1   1658.7,148.1 1658.7,168.9 1605.2,168.9 1605.2,195.6 "></polygon>
<polygon class="st1" points="1683.9,60.5 1683.9,83.2 1708.5,83.2 1708.5,225.2 1683.9,225.2 1683.9,247.9 1735,247.9 1735,60.5 "></polygon>
<path class="st1" d="M1023.6,76c-3.2-3.1-4.8-7-4.8-11.8c0-4.8,1.6-8.8,4.7-11.8c3.1-3,7.1-4.5,11.8-4.5c4.8,0,8.8,1.5,11.9,4.5  c3.1,3,4.6,6.9,4.6,11.8c0,4.7-1.6,8.7-4.7,11.8c-3.1,3.1-7.1,4.6-11.8,4.6C1030.7,80.6,1026.8,79.1,1023.6,76"></path>
<path class="st0" d="M1204.6,76c-3.2-3.1-4.8-7-4.8-11.8c0-4.8,1.6-8.8,4.7-11.8c3.1-3,7.1-4.5,11.8-4.5c4.8,0,8.8,1.5,11.9,4.5  c3.1,3,4.6,6.9,4.6,11.8c0,4.7-1.6,8.7-4.7,11.8c-3.1,3.1-7.1,4.6-11.8,4.6C1211.7,80.6,1207.8,79.1,1204.6,76"></path>
</svg>